<?xml version="1.0" encoding="iso-8859-1"?>
<!-- Uploaded to: SVG Repo, www.svgrepo.com, Generator: SVG Repo Mixer Tools -->
<svg fill="#000000" height="800px" width="800px" version="1.1" id="Layer_1" xmlns="http://www.w3.org/2000/svg" xmlns:xlink="http://www.w3.org/1999/xlink" 
	 viewBox="0 0 512.001 512.001" xml:space="preserve">
<g>
	<g>
		<path d="M426.696,255.255h-71.209V96.335c0-5.633-4.567-10.199-10.199-10.199H166.713c-5.632,0-10.199,4.566-10.199,10.199v158.92
			H85.305C38.268,255.255,0,293.523,0,340.56c0,47.037,38.268,85.305,85.305,85.305h341.391c47.037,0,85.305-38.267,85.305-85.305
			S473.733,255.255,426.696,255.255z M244.571,106.534h22.858v53.132h-22.858V106.534z M176.912,106.534h47.26v63.331
			c0,5.633,4.567,10.199,10.199,10.199h43.257c5.632,0,10.199-4.566,10.199-10.199v-63.331h47.26v148.721H176.912V106.534z
			 M426.695,405.467H85.305c-35.79,0-64.907-29.117-64.907-64.907s29.117-64.907,64.907-64.907h341.39v0
			c35.79,0,64.907,29.117,64.907,64.907C491.602,376.349,462.485,405.467,426.695,405.467z"/>
	</g>
</g>
<g>
	<g>
		<path d="M171.668,304.169c-19.776,0-35.866,16.089-35.866,35.865c0,19.776,16.089,35.866,35.866,35.866
			c19.776,0,35.865-16.089,35.865-35.866C207.533,320.259,191.444,304.169,171.668,304.169z M171.668,355.502
			c-8.529,0-15.467-6.939-15.467-15.467s6.939-15.467,15.467-15.467s15.467,6.939,15.467,15.467S180.198,355.502,171.668,355.502z"
			/>
	</g>
</g>
<g>
	<g>
		<path d="M87.337,304.169c-19.776,0-35.865,16.089-35.865,35.865c0,19.776,16.089,35.866,35.865,35.866
			s35.865-16.089,35.865-35.866C123.202,320.259,107.113,304.169,87.337,304.169z M87.337,355.502
			c-8.529,0-15.467-6.939-15.467-15.467s6.939-15.467,15.467-15.467s15.467,6.939,15.467,15.467S95.865,355.502,87.337,355.502z"/>
	</g>
</g>
<g>
	<g>
		<path d="M256,304.169c-19.776,0-35.865,16.089-35.865,35.865c0,19.776,16.089,35.866,35.865,35.866
			c19.776,0,35.866-16.089,35.866-35.866C291.866,320.259,275.776,304.169,256,304.169z M256,355.502
			c-8.529,0-15.467-6.939-15.467-15.467s6.939-15.467,15.467-15.467s15.467,6.939,15.467,15.467S264.529,355.502,256,355.502z"/>
	</g>
</g>
<g>
	<g>
		<path d="M340.332,304.169c-19.776,0-35.865,16.089-35.865,35.865c0,19.776,16.089,35.866,35.865,35.866
			c19.776,0,35.866-16.089,35.866-35.866C376.198,320.259,360.107,304.169,340.332,304.169z M340.332,355.502
			c-8.529,0-15.467-6.939-15.467-15.467s6.939-15.467,15.467-15.467c8.529,0,15.467,6.939,15.467,15.467
			S348.861,355.502,340.332,355.502z"/>
	</g>
</g>
<g>
	<g>
		<path d="M424.663,304.169c-19.776,0-35.866,16.089-35.866,35.865c0,19.776,16.089,35.866,35.866,35.866
			s35.865-16.089,35.865-35.866C460.529,320.259,444.439,304.169,424.663,304.169z M424.663,355.502
			c-8.529,0-15.467-6.939-15.467-15.467s6.939-15.467,15.467-15.467s15.467,6.939,15.467,15.467S433.192,355.502,424.663,355.502z"
			/>
	</g>
</g>
<g>
	<g>
		<path d="M312.199,222.692h-4.727c-5.632,0-10.199,4.566-10.199,10.199c0,5.633,4.567,10.199,10.199,10.199h4.727
			c5.632,0,10.199-4.566,10.199-10.199C322.398,227.258,317.831,222.692,312.199,222.692z"/>
	</g>
</g>
<g>
	<g>
		<path d="M275.958,222.692h-76.156c-5.632,0-10.199,4.566-10.199,10.199c0,5.633,4.567,10.199,10.199,10.199h76.156
			c5.632,0,10.199-4.566,10.199-10.199C286.157,227.258,281.591,222.692,275.958,222.692z"/>
	</g>
</g>
</svg>